<svg width="118" height="42" viewBox="0 0 118 42" fill="none" xmlns="http://www.w3.org/2000/svg">
<path d="M114.583 20.977L107.81 17.0691V9.27846C107.808 8.19234 107.521 7.12571 106.978 6.18538C106.434 5.24505 105.653 4.46403 104.713 3.92053L99.3525 0.826011C98.4105 0.284804 97.3431 0 96.2567 0C95.1703 0 94.1029 0.284804 93.1609 0.826011L87.7979 3.92053C86.8579 4.46442 86.0771 5.24553 85.5336 6.18577C84.9902 7.12601 84.703 8.19244 84.7009 9.27846V17.0691L77.9308 20.977C76.9908 21.5209 76.21 22.302 75.6666 23.2422C75.1231 24.1825 74.8359 25.2489 74.8338 26.3349V32.5214C74.8355 33.6079 75.1224 34.6748 75.6659 35.6156C76.2094 36.5563 76.9904 37.3378 77.9308 37.8819L83.2938 40.9739C84.2352 41.5168 85.3028 41.8026 86.3896 41.8026C87.4763 41.8026 88.544 41.5168 89.4854 40.9739L96.2377 37.0786L96.2554 37.0912L96.2756 37.0786L103.028 40.9739C103.969 41.5168 105.037 41.8026 106.124 41.8026C107.211 41.8026 108.278 41.5168 109.22 40.9739L114.583 37.8819C115.523 37.3377 116.303 36.5561 116.846 35.6153C117.389 34.6746 117.676 33.6077 117.677 32.5214V26.3349C117.675 25.2491 117.389 24.1827 116.846 23.2425C116.303 22.3022 115.522 21.521 114.583 20.977ZM88.0758 9.27846C88.0767 8.78428 88.2074 8.29901 88.4548 7.8712C88.7021 7.44339 89.0575 7.08805 89.4854 6.84074L94.8458 3.74622C95.275 3.50051 95.7609 3.37124 96.2554 3.37124C96.7499 3.37124 97.2359 3.50051 97.665 3.74622L103.028 6.84074C103.456 7.08805 103.811 7.44339 104.059 7.8712C104.306 8.29901 104.437 8.78428 104.438 9.27846V15.1467L99.8072 12.469C98.7263 11.847 97.5012 11.5197 96.2542 11.5197C95.0071 11.5197 93.782 11.847 92.7011 12.469L88.0758 15.1467V9.27846ZM87.7979 38.0537C87.3692 38.3006 86.8831 38.4306 86.3883 38.4306C85.8936 38.4306 85.4075 38.3006 84.9787 38.0537L79.6183 34.9516C79.1906 34.7035 78.8354 34.3476 78.5881 33.9194C78.3407 33.4913 78.2099 33.0058 78.2087 32.5113V26.3349C78.2096 25.8407 78.3403 25.3555 78.5877 24.9277C78.835 24.4999 79.1904 24.1445 79.6183 23.8972L84.7009 20.9644V26.3248C84.703 27.5712 85.0324 28.7952 85.6561 29.8742C86.2799 30.9533 87.1761 31.8496 88.2551 32.4734L92.8628 35.1335L87.7979 38.0537ZM96.2554 33.1984L89.9401 29.5558C89.3732 29.2279 88.9024 28.7569 88.5748 28.1898C88.2471 27.6228 88.0742 26.9797 88.0733 26.3248V19.0369L94.3886 15.3942C94.9561 15.0677 95.5994 14.8959 96.2542 14.8959C96.9089 14.8959 97.5522 15.0677 98.1197 15.3942L104.435 19.0369V26.3223C104.434 26.9767 104.261 27.6193 103.933 28.1859C103.605 28.7524 103.135 29.223 102.568 29.5507L96.2554 33.1984ZM114.302 32.5214C114.301 33.0157 114.171 33.5011 113.924 33.9293C113.677 34.3575 113.322 34.7134 112.895 34.9617L107.532 38.0537C107.103 38.3006 106.617 38.4306 106.123 38.4306C105.628 38.4306 105.142 38.3006 104.713 38.0537L99.6607 35.1335L104.268 32.4734C105.347 31.8491 106.242 30.9526 106.866 29.8736C107.489 28.7946 107.818 27.5709 107.82 26.3248V20.9644L112.905 23.8972C113.333 24.1446 113.688 24.5001 113.935 24.9279C114.182 25.3557 114.312 25.8409 114.312 26.3349L114.302 32.5214Z" fill="#221AFB"/>
<path d="M19.0592 22.3967C19.0592 22.5591 19.1074 22.7178 19.1976 22.8528C19.2878 22.9878 19.416 23.093 19.566 23.1552C19.7161 23.2173 19.8811 23.2336 20.0404 23.2019C20.1996 23.1702 20.3459 23.092 20.4608 22.9772C20.5756 22.8624 20.6538 22.7161 20.6854 22.5568C20.7171 22.3976 20.7009 22.2325 20.6387 22.0825C20.5766 21.9325 20.4714 21.8043 20.3363 21.7141C20.2013 21.6238 20.0426 21.5757 19.8802 21.5757C19.6631 21.5777 19.4554 21.6648 19.3019 21.8183C19.1483 21.9719 19.0612 22.1796 19.0592 22.3967Z" fill="#221AFB"/>
<path d="M35.9237 12.8529H34.499V20.3631H35.9237V12.8529Z" fill="#221AFB"/>
<path d="M8.86626 20.3606V16.1066H8.19684C7.343 16.1066 6.86809 16.8089 6.86809 17.6223V20.3657H3.14204C2.76721 20.3776 2.394 20.3114 2.0461 20.1714C1.6982 20.0313 1.38321 19.8205 1.12113 19.5523C0.649196 19.0221 0.388458 18.3371 0.388458 17.6273C0.388458 16.9176 0.649196 16.2326 1.12113 15.7024L2.15685 16.5638C1.92486 16.8671 1.80362 17.2406 1.81329 17.6223C1.80293 18.0072 1.92412 18.3841 2.15685 18.6908C2.27499 18.8374 2.42536 18.9546 2.59624 19.0335C2.76712 19.1123 2.9539 19.1507 3.14204 19.1455H5.44082V17.6299C5.42829 17.2657 5.49119 16.9029 5.62559 16.5643C5.75999 16.2256 5.96298 15.9184 6.2218 15.6619C6.48063 15.4055 6.78969 15.2053 7.12958 15.0741C7.46946 14.9428 7.83283 14.8832 8.19684 14.8991H10.2961V19.1531H15.265C15.1917 18.9515 15.1541 18.7386 15.1538 18.5241V17.6299C15.1629 17.2474 15.0397 16.8736 14.8052 16.5714C14.6854 16.4257 14.5339 16.3092 14.3623 16.2309C14.1907 16.1525 14.0035 16.1143 13.815 16.1192C13.627 16.1138 13.4404 16.1518 13.2695 16.2302C13.0986 16.3086 12.9482 16.4254 12.8298 16.5714L11.7941 15.71C12.3395 15.1922 13.0629 14.9036 13.815 14.9036C14.567 14.9036 15.2904 15.1922 15.8359 15.71C16.3187 16.2314 16.5811 16.9194 16.5685 17.6299V18.6706C16.5691 18.7988 16.6205 18.9216 16.7114 19.012C16.8023 19.1024 16.9253 19.1531 17.0535 19.1531H20.9942C20.921 18.9515 20.8834 18.7386 20.8831 18.5241V17.6299C20.8925 17.247 20.7683 16.8728 20.532 16.5714C20.4127 16.4258 20.2617 16.3093 20.0905 16.2309C19.9193 16.1526 19.7325 16.1144 19.5442 16.1192C19.3563 16.1138 19.1697 16.1518 18.9988 16.2302C18.8279 16.3086 18.6774 16.4254 18.559 16.5714L17.5233 15.71C18.0685 15.1917 18.792 14.9026 19.5442 14.9026C20.2965 14.9026 21.02 15.1917 21.5651 15.71C22.0486 16.2312 22.312 16.9191 22.3003 17.6299V18.6706C22.3009 18.7984 22.352 18.9207 22.4423 19.0111C22.5326 19.1014 22.655 19.1525 22.7827 19.1531H23.1288V20.3732L8.86626 20.3606Z" fill="#221AFB"/>
<path d="M3.93273 22.3967C3.93273 22.1789 3.84623 21.9701 3.69226 21.8162C3.5383 21.6622 3.32947 21.5757 3.11173 21.5757C2.89399 21.5757 2.68517 21.6622 2.5312 21.8162C2.37724 21.9701 2.29074 22.1789 2.29074 22.3967C2.29074 22.6144 2.37724 22.8232 2.5312 22.9772C2.68517 23.1312 2.89399 23.2177 3.11173 23.2177C3.32947 23.2177 3.5383 23.1312 3.69226 22.9772C3.84623 22.8232 3.93273 22.6144 3.93273 22.3967Z" fill="#221AFB"/>
<path d="M41.5747 14.6516C41.7371 14.6516 41.8958 14.6034 42.0308 14.5132C42.1658 14.423 42.271 14.2948 42.3332 14.1447C42.3953 13.9947 42.4116 13.8296 42.3799 13.6704C42.3482 13.5111 42.27 13.3648 42.1552 13.25C42.0404 13.1352 41.8941 13.057 41.7348 13.0253C41.5756 12.9937 41.4105 13.0099 41.2605 13.0721C41.1105 13.1342 40.9823 13.2394 40.892 13.3744C40.8018 13.5094 40.7537 13.6682 40.7537 13.8306C40.7537 14.0483 40.8402 14.2571 40.9941 14.4111C41.1481 14.5651 41.3569 14.6516 41.5747 14.6516Z" fill="#221AFB"/>
<path d="M5.46611 21.5757C5.30373 21.5757 5.145 21.6238 5.00999 21.7141C4.87498 21.8043 4.76975 21.9325 4.70761 22.0825C4.64547 22.2325 4.62921 22.3976 4.66089 22.5568C4.69257 22.7161 4.77076 22.8624 4.88558 22.9772C5.0004 23.092 5.14668 23.1702 5.30594 23.2019C5.4652 23.2336 5.63027 23.2173 5.78029 23.1552C5.93031 23.093 6.05853 22.9878 6.14874 22.8528C6.23895 22.7178 6.2871 22.5591 6.2871 22.3967C6.28513 22.1796 6.19799 21.9719 6.04445 21.8183C5.89091 21.6648 5.68324 21.5777 5.46611 21.5757Z" fill="#221AFB"/>
<path d="M44.697 14.884C44.3329 14.8684 43.9694 14.9283 43.6296 15.0599C43.2897 15.1914 42.9806 15.3918 42.7218 15.6485C42.4631 15.9051 42.2601 16.2125 42.1257 16.5513C41.9914 16.8901 41.9285 17.253 41.941 17.6172C41.9374 18.1516 42.0826 18.6764 42.3603 19.1329H40.4884C40.3007 19.1381 40.1143 19.0997 39.9438 19.0208C39.7733 18.9419 39.6234 18.8247 39.5058 18.6782C39.2731 18.3715 39.1519 17.9946 39.1622 17.6097C39.1526 17.228 39.2738 16.8545 39.5058 16.5512L38.4675 15.6898C37.9956 16.2199 37.7349 16.9049 37.7349 17.6147C37.7349 18.3245 37.9956 19.0095 38.4675 19.5396C38.73 19.8074 39.045 20.0179 39.3929 20.1579C39.7407 20.2979 40.1137 20.3643 40.4884 20.353H44.697C45.4232 20.353 46.1197 20.0645 46.6333 19.551C47.1468 19.0375 47.4353 18.341 47.4353 17.6147C47.4353 16.8885 47.1468 16.192 46.6333 15.6784C46.1197 15.1649 45.4232 14.8764 44.697 14.8764V14.884ZM44.697 19.1329C43.8432 19.1329 43.3682 18.4307 43.3682 17.6172C43.3682 16.8038 43.8432 16.1016 44.697 16.1016C45.5508 16.1016 46.0358 16.8038 46.0358 17.6172C46.0358 18.4307 45.5483 19.1329 44.697 19.1329Z" fill="#221AFB"/>
<path d="M63.8906 14.884C63.5264 14.8684 63.163 14.9283 62.8231 15.0599C62.4832 15.1914 62.1742 15.3918 61.9154 15.6485C61.6566 15.9051 61.4537 16.2125 61.3193 16.5513C61.1849 16.8901 61.122 17.253 61.1345 17.6172C61.1303 18.1517 61.2756 18.6766 61.5539 19.1329H59.7452C59.691 19.1363 59.6372 19.1222 59.5917 19.0926C59.5462 19.063 59.5114 19.0196 59.4926 18.9687C59.6804 18.6195 59.7834 18.2309 59.7932 17.8345C59.8054 17.4696 59.742 17.106 59.6068 16.7668C59.4717 16.4276 59.2678 16.1201 59.0079 15.8635C58.7481 15.607 58.4379 15.4071 58.097 15.2763C57.7561 15.1455 57.3918 15.0868 57.0271 15.1037C55.471 15.1037 54.3696 15.9348 53.6193 16.872V15.5509H52.2905V19.143H50.742C50.5071 19.143 50.4338 18.9611 50.4338 18.7313V15.3867H49.0091V19.9766C49.0091 20.7976 48.5241 21.4923 47.6702 21.4923V22.7125C48.0267 22.7285 48.3827 22.6722 48.7167 22.5469C49.0508 22.4216 49.3561 22.23 49.6141 21.9835C49.8721 21.7371 50.0775 21.441 50.218 21.113C50.3584 20.785 50.431 20.432 50.4313 20.0752C50.4951 20.1649 50.5802 20.2373 50.679 20.2858C50.7778 20.3343 50.8872 20.3574 50.9972 20.353H57.4388C57.996 20.344 58.5279 20.1184 58.9216 19.724C59.0279 19.9165 59.1843 20.0766 59.3742 20.1873C59.5641 20.2981 59.7805 20.3553 60.0003 20.353H63.8906C64.6168 20.353 65.3133 20.0645 65.8269 19.551C66.3404 19.0375 66.6289 18.341 66.6289 17.6147C66.6289 16.8885 66.3404 16.192 65.8269 15.6784C65.3133 15.1649 64.6168 14.8764 63.8906 14.8764V14.884ZM57.0094 19.1329H53.8062C54.4378 17.6021 55.6301 16.3239 57.0195 16.3239C57.8733 16.3239 58.3608 17.0236 58.3608 17.8395C58.3608 18.6555 57.8556 19.138 57.0094 19.138V19.1329ZM63.8906 19.138C63.0367 19.138 62.5618 18.4357 62.5618 17.6223C62.5618 16.8089 63.0367 16.1066 63.8906 16.1066C64.7444 16.1066 65.2294 16.8089 65.2294 17.6223C65.2294 18.4357 64.7419 19.138 63.8906 19.138Z" fill="#221AFB"/>
<path d="M26.332 12.8529H24.9072V20.3631H26.332V12.8529Z" fill="#221AFB"/>
<path d="M31.8364 18.3094C31.8364 18.8929 31.5434 19.1405 31.1443 19.1405H29.9393C29.7044 19.1405 29.6336 18.9586 29.6336 18.7287V15.3867H28.2064V19.9766C28.2064 20.7976 27.7214 21.4923 26.8675 21.4923V22.7124C27.224 22.7285 27.5799 22.6722 27.914 22.5469C28.2481 22.4216 28.5533 22.23 28.8113 21.9835C29.0694 21.7371 29.2748 21.441 29.4152 21.113C29.5557 20.785 29.6283 20.432 29.6286 20.0752C29.6925 20.1647 29.7777 20.237 29.8765 20.2855C29.9752 20.334 30.0845 20.3572 30.1944 20.353H31.3489C32.612 20.353 33.2056 19.5649 33.2056 18.3776V12.8454H31.8364V18.3094Z" fill="#221AFB"/>
<path d="M39.2229 33.2212V24.8723H40.6501V28.0249C40.8686 27.8484 41.1132 27.7069 41.3751 27.6056C41.6194 27.5244 41.8755 27.4843 42.133 27.4868C42.5436 27.4797 42.9508 27.5636 43.3251 27.7327C43.6995 27.9017 44.0317 28.1516 44.2979 28.4645C44.8159 29.0508 45.0837 29.8167 45.0441 30.5981C45.0044 31.3795 44.6604 32.1143 44.0857 32.6452C43.5585 33.1429 42.8578 33.4148 42.133 33.4031C41.8749 33.4057 41.6184 33.363 41.3751 33.2767C41.1152 33.1744 40.8712 33.0358 40.6501 32.865V33.2161L39.2229 33.2212ZM42.1153 28.7777C41.9011 28.7699 41.6882 28.8136 41.4944 28.905C41.3006 28.9964 41.1315 29.1329 41.0013 29.3031C40.7514 29.6291 40.6228 30.0319 40.6375 30.4424C40.6265 30.6731 40.6617 30.9037 40.7411 31.1206C40.8205 31.3375 40.9424 31.5364 41.0998 31.7055C41.2321 31.8375 41.3899 31.9412 41.5637 32.0103C41.7374 32.0794 41.9234 32.1123 42.1102 32.1072C42.3279 32.1143 42.5443 32.0705 42.7421 31.9793C42.9398 31.888 43.1136 31.7519 43.2495 31.5817C43.4985 31.2554 43.6262 30.8526 43.6108 30.4424C43.6235 30.2105 43.5879 29.9784 43.5061 29.7609C43.4244 29.5435 43.2983 29.3454 43.1358 29.1794C43.0022 29.0442 42.8422 28.9379 42.6657 28.8671C42.4893 28.7963 42.3003 28.7624 42.1102 28.7676" fill="#221AFB"/>
<path d="M51.6388 33.2212H50.2116V32.87C49.9905 33.0408 49.7464 33.1794 49.4865 33.2818C49.2434 33.3683 48.9868 33.4111 48.7287 33.4081C48.3179 33.4164 47.9104 33.3329 47.5359 33.1638C47.1614 32.9946 46.8293 32.7441 46.5638 32.4305C46.046 31.8429 45.7773 31.0769 45.8146 30.2946C45.8518 29.5124 46.1921 28.7753 46.7634 28.2396C47.2971 27.7444 48.0007 27.4731 48.7287 27.4818C48.9862 27.4789 49.2423 27.5191 49.4865 27.6005C49.7485 27.7019 49.9931 27.8433 50.2116 28.0199V27.6763H51.6388V33.2212ZM48.7489 28.7777C48.5311 28.7694 48.3143 28.8126 48.1163 28.9039C47.9184 28.9952 47.7447 29.132 47.6096 29.3031C47.3597 29.6291 47.2311 30.0319 47.2459 30.4424C47.2352 30.6742 47.2718 30.9056 47.3535 31.1228C47.4351 31.3399 47.5601 31.5382 47.7208 31.7055C47.8566 31.8378 48.0175 31.9415 48.1941 32.0105C48.3707 32.0795 48.5594 32.1124 48.7489 32.1072C48.9643 32.1137 49.1783 32.0695 49.3735 31.9783C49.5688 31.887 49.7399 31.7512 49.873 31.5817C50.1229 31.2557 50.2516 30.8529 50.2368 30.4424C50.25 30.2115 50.2158 29.9803 50.1363 29.7631C50.0568 29.5459 49.9337 29.3472 49.7745 29.1794C49.6407 29.0445 49.4806 28.9383 49.3043 28.8675C49.1279 28.7967 48.9389 28.7627 48.7489 28.7676" fill="#221AFB"/>
<path d="M54.5186 27.9643C54.7004 27.8081 54.907 27.6835 55.1299 27.5955C55.3471 27.5184 55.5765 27.4816 55.8069 27.4868C56.1318 27.4872 56.4531 27.5534 56.7517 27.6814C57.049 27.8047 57.3162 27.9908 57.5348 28.227C57.9339 28.6615 58.1335 29.3309 58.1335 30.2479V33.2288H56.7088V30.3288C56.7088 29.7023 56.6153 29.2855 56.4334 29.0783C56.3403 28.9762 56.2254 28.8962 56.0974 28.8442C55.9693 28.7922 55.8312 28.7695 55.6933 28.7777C55.5215 28.7648 55.3491 28.7932 55.1904 28.8604C55.0318 28.9276 54.8915 29.0318 54.7813 29.1642C54.6045 29.3814 54.5287 29.8084 54.5287 30.4424V33.2212H53.1014V27.6637H54.5287L54.5186 27.9643Z" fill="#221AFB"/>
<path d="M62.5138 30.0029L65.0551 33.2212H63.3045L61.5387 30.9552L61.0133 31.468V33.2212H59.586V24.8723H61.0133V29.6543L63.0292 27.6763H64.9061L62.5138 30.0029Z" fill="#221AFB"/>
<path d="M7.81794 33.2212H6.3932V32.87C6.17087 33.0402 5.92603 33.1788 5.66567 33.2818C5.4225 33.3683 5.16592 33.4111 4.90783 33.4081C4.49591 33.4154 4.08751 33.331 3.71222 33.1611C3.33692 32.9911 3.00411 32.7399 2.73788 32.4254C2.22428 31.836 1.9583 31.0709 1.99549 30.2899C2.03268 29.509 2.37016 28.7726 2.93744 28.2346C3.47144 27.7398 4.17482 27.4685 4.90278 27.4767C5.16024 27.4739 5.41637 27.514 5.66062 27.5955C5.92312 27.6973 6.16848 27.8387 6.38815 28.0148V27.6763H7.81289L7.81794 33.2212ZM4.92804 28.7777C4.71024 28.7698 4.49362 28.8132 4.29571 28.9045C4.0978 28.9958 3.92413 29.1323 3.78875 29.3031C3.53886 29.6291 3.41024 30.0319 3.42499 30.4424C3.41408 30.6744 3.45082 30.9062 3.53293 31.1234C3.61505 31.3406 3.7408 31.5387 3.90243 31.7055C4.03775 31.8377 4.19827 31.9414 4.37446 32.0104C4.55064 32.0794 4.7389 32.1123 4.92804 32.1072C5.14383 32.1137 5.35814 32.0695 5.55379 31.9783C5.74945 31.887 5.921 31.7512 6.0547 31.5817C6.30369 31.2554 6.4314 30.8526 6.41593 30.4424C6.42914 30.2115 6.39494 29.9803 6.31543 29.7631C6.23593 29.5459 6.11281 29.3472 5.95365 29.1794C5.81996 29.0442 5.65996 28.9379 5.48355 28.8671C5.30714 28.7963 5.11807 28.7624 4.92804 28.7676" fill="#221AFB"/>
<path d="M10.7104 24.8723H9.2831V33.2212H10.7104V24.8723Z" fill="#221AFB"/>
<path d="M21.6233 33.2212H20.196V32.87C19.975 33.0408 19.7309 33.1794 19.471 33.2818C19.2278 33.3683 18.9712 33.4111 18.7132 33.4081C18.3023 33.4164 17.8948 33.3329 17.5203 33.1638C17.1458 32.9946 16.8137 32.7441 16.5483 32.4305C16.0305 31.8429 15.7617 31.0769 15.799 30.2946C15.8362 29.5124 16.1765 28.7753 16.7478 28.2396C17.2815 27.7444 17.9851 27.4731 18.7132 27.4818C18.9706 27.4789 19.2267 27.5191 19.471 27.6005C19.7329 27.7019 19.9775 27.8433 20.196 28.0199V27.6763H21.6233V33.2212ZM18.7334 28.7777C18.5155 28.7694 18.2988 28.8126 18.1008 28.9039C17.9028 28.9952 17.7292 29.132 17.5941 29.3031C17.3442 29.6291 17.2156 30.0319 17.2303 30.4424C17.2197 30.6742 17.2563 30.9056 17.3379 31.1228C17.4196 31.3399 17.5445 31.5382 17.7052 31.7055C17.841 31.8378 18.002 31.9415 18.1786 32.0105C18.3552 32.0795 18.5438 32.1124 18.7334 32.1072C18.9488 32.1137 19.1627 32.0695 19.358 31.9783C19.5532 31.887 19.7243 31.7512 19.8575 31.5817C20.1074 31.2557 20.236 30.8529 20.2213 30.4424C20.2345 30.2115 20.2003 29.9803 20.1208 29.7631C20.0413 29.5459 19.9181 29.3472 19.759 29.1794C19.6251 29.0445 19.4651 28.9383 19.2887 28.8675C19.1123 28.7967 18.9233 28.7627 18.7334 28.7676" fill="#221AFB"/>
<path d="M23.9018 24.9102C24.0198 24.9079 24.137 24.9291 24.2467 24.9725C24.3564 25.0158 24.4564 25.0805 24.5409 25.1628C24.6234 25.2435 24.6884 25.3403 24.7319 25.4472C24.7753 25.5542 24.7963 25.6689 24.7936 25.7842C24.7971 25.9012 24.7765 26.0177 24.7331 26.1263C24.6896 26.235 24.6242 26.3335 24.5409 26.4158C24.4568 26.4985 24.3568 26.5635 24.247 26.6069C24.1372 26.6503 24.0198 26.6712 23.9018 26.6684C23.7851 26.6691 23.6694 26.6466 23.5613 26.6023C23.4533 26.558 23.3552 26.4928 23.2725 26.4103C23.1898 26.3279 23.1243 26.2299 23.0797 26.122C23.0351 26.0141 23.0123 25.8985 23.0126 25.7817C23.0099 25.6663 23.0309 25.5516 23.0743 25.4447C23.1178 25.3378 23.1828 25.241 23.2652 25.1603C23.3475 25.0785 23.4453 25.014 23.5529 24.9706C23.6605 24.9272 23.7757 24.9058 23.8917 24.9077" fill="#221AFB"/>
<path d="M27.5066 27.9643C27.6884 27.8081 27.895 27.6835 28.1179 27.5955C28.3352 27.5186 28.5646 27.4817 28.7949 27.4868C29.1198 27.4872 29.4412 27.5534 29.7397 27.6814C30.037 27.8047 30.3042 27.9908 30.5228 28.227C30.922 28.6615 31.124 29.3309 31.124 30.2479V33.2288H29.6968V30.3287C29.6968 29.7023 29.6033 29.2855 29.4214 29.0783C29.3283 28.9762 29.2135 28.8962 29.0854 28.8442C28.9573 28.7922 28.8193 28.7695 28.6813 28.7777C28.5095 28.765 28.3372 28.7935 28.1786 28.8607C28.02 28.9279 27.8797 29.0319 27.7693 29.1642C27.5925 29.3814 27.5167 29.8084 27.5167 30.4424V33.2212H26.0895V24.8723H27.5167L27.5066 27.9643Z" fill="#221AFB"/>
<path d="M33.289 24.9102C33.4066 24.9077 33.5235 24.9288 33.6328 24.9722C33.7421 25.0155 33.8417 25.0804 33.9255 25.1628C34.0084 25.2432 34.0736 25.34 34.1171 25.447C34.1606 25.554 34.1814 25.6688 34.1782 25.7842C34.1822 25.9013 34.1618 26.0179 34.1183 26.1266C34.0748 26.2353 34.0092 26.3338 33.9255 26.4158C33.842 26.4987 33.7425 26.5638 33.6331 26.6072C33.5237 26.6506 33.4066 26.6714 33.289 26.6684C33.1722 26.6691 33.0565 26.6466 32.9485 26.6023C32.8405 26.558 32.7423 26.4928 32.6596 26.4103C32.5769 26.3279 32.5114 26.2299 32.4668 26.122C32.4222 26.0141 32.3994 25.8985 32.3998 25.7817C32.397 25.6663 32.418 25.5516 32.4614 25.4447C32.5049 25.3378 32.5699 25.241 32.6524 25.1603C32.7346 25.0785 32.8325 25.014 32.9401 24.9706C33.0477 24.9272 33.1629 24.9058 33.2789 24.9077L33.289 24.9102ZM33.9912 33.2187H32.564V27.6612H33.9912V33.2187Z" fill="#221AFB"/>
<path d="M12.0669 29.8791V33.2363H13.4916V29.821C13.4916 29.0632 13.8832 28.8333 14.5021 28.8333H15.3004V27.5702L14.4541 27.5576C12.8424 27.5576 12.0669 28.4417 12.0669 29.8715" fill="#221AFB"/>
<path d="M24.6142 27.6763H23.1895V33.3803C23.1895 34.2165 22.6969 34.9288 21.8304 34.9288V36.1692C22.1911 36.1755 22.5495 36.1103 22.8849 35.9774C23.2203 35.8444 23.526 35.6463 23.7844 35.3945C24.0428 35.1427 24.2487 34.8422 24.3903 34.5104C24.5318 34.1785 24.6062 33.8219 24.6092 33.4612L24.6142 27.6763Z" fill="#221AFB"/>
</svg>
